<?xml version="1.0" standalone="no"?>
<!DOCTYPE svg PUBLIC "-//W3C//DTD SVG 20010904//EN"
 "http://www.w3.org/TR/2001/REC-SVG-20010904/DTD/svg10.dtd">
<svg version="1.0" xmlns="http://www.w3.org/2000/svg"
 width="650.000000pt" height="650.000000pt" viewBox="0 0 650.000000 650.000000"
 preserveAspectRatio="xMidYMid meet">

<g transform="translate(0.000000,650.000000) scale(0.100000,-0.100000)"
fill="#000000" stroke="none">
<path d="M1094 5196 c-3 -7 -3 -463 -1 -1012 3 -978 4 -1002 26 -1139 119
-743 499 -1347 1171 -1862 233 -179 617 -404 813 -478 l48 -18 97 42 c177 75
462 239 652 374 257 183 542 446 707 653 309 388 493 798 568 1264 28 178 36
482 33 1340 l-3 845 -2053 3 c-1725 2 -2053 0 -2058 -12z m1266 -292 c44 -74
66 -139 81 -248 16 -113 3 -200 -53 -346 -102 -269 -128 -354 -134 -442 l-7
-88 -56 0 -57 0 -11 98 c-11 97 -25 145 -132 452 -39 112 -52 164 -57 230 -13
182 52 342 206 506 l44 47 71 -76 c39 -43 86 -102 105 -133z m1810 139 c122
-134 169 -228 191 -388 17 -129 2 -203 -91 -445 -71 -181 -100 -293 -100 -380
l0 -50 -58 0 -58 0 -12 103 c-12 100 -18 120 -136 455 -99 284 -64 475 129
702 33 38 62 70 66 70 4 0 35 -30 69 -67z m-2446 -660 c59 -20 129 -68 176
-119 81 -88 160 -298 160 -426 l0 -58 -42 0 -43 1 -34 71 c-60 123 -164 208
-226 184 -21 -8 -19 -75 5 -143 11 -31 18 -59 15 -61 -10 -10 -109 23 -162 55
-79 47 -119 87 -151 153 -23 47 -27 68 -27 140 0 97 22 152 74 190 57 40 163
46 255 13z m1156 2 c73 -37 105 -102 104 -210 -1 -114 -51 -205 -152 -271 -54
-37 -177 -82 -189 -70 -3 3 4 31 16 62 45 118 11 176 -78 129 -44 -22 -129
-121 -159 -186 -27 -58 -27 -59 -70 -59 l-43 0 7 68 c28 288 179 503 384 549
60 13 141 8 180 -12z m764 -2 c59 -20 129 -68 176 -119 81 -88 160 -298 160
-426 l0 -58 -44 0 c-42 0 -44 1 -63 48 -31 73 -107 168 -152 192 -103 52 -134
-5 -76 -144 9 -21 14 -40 11 -43 -11 -11 -109 21 -163 54 -79 47 -119 87 -151
153 -23 47 -27 68 -27 140 0 97 22 152 74 190 57 40 163 46 255 13z m1156 2
c35 -18 76 -64 91 -100 6 -16 12 -64 12 -106 0 -127 -62 -228 -180 -294 -49
-27 -151 -60 -160 -52 -3 3 4 33 16 66 34 99 26 141 -28 141 -59 0 -156 -91
-204 -192 l-32 -67 -43 0 -44 -1 7 68 c22 229 130 427 277 507 95 52 220 65
288 30z m-2272 -631 c20 -6 23 -12 20 -48 l-3 -41 -355 0 -355 0 -3 39 c-2 24
2 42 10 47 15 10 651 12 686 3z m1920 0 c20 -6 23 -12 20 -48 l-3 -41 -350 -3
c-320 -2 -351 -1 -362 15 -17 23 -16 48 3 67 13 14 58 16 342 16 180 0 337 -3
350 -6z m-2082 -161 c15 -26 61 -81 101 -121 41 -41 73 -76 71 -77 -8 -8 -109
20 -167 46 -35 16 -67 29 -71 29 -4 0 -10 -33 -13 -73 -8 -90 -38 -189 -72
-240 -22 -32 -29 -36 -41 -26 -43 35 -83 173 -84 282 0 31 -4 57 -9 57 -5 0
-34 -11 -66 -25 -64 -29 -166 -58 -174 -50 -2 3 26 35 62 70 37 36 83 90 103
120 l35 55 148 0 149 0 28 -47z m1932 -17 c23 -35 69 -89 103 -120 34 -31 59
-59 56 -62 -8 -9 -128 26 -178 52 -27 13 -52 24 -57 24 -5 0 -12 -34 -16 -75
-4 -42 -16 -104 -26 -138 -20 -62 -63 -137 -80 -137 -15 0 -69 121 -80 179 -5
29 -10 80 -10 112 0 33 -3 59 -6 59 -4 0 -45 -15 -93 -34 -90 -35 -151 -51
-151 -38 0 4 30 37 66 72 37 35 82 88 101 117 l34 53 147 0 148 0 42 -64z
m-1081 -770 c119 -128 164 -223 184 -388 15 -125 -2 -210 -86 -423 -77 -195
-93 -255 -102 -362 l-6 -83 -57 0 -57 0 -7 71 c-10 111 -33 199 -98 372 -84
225 -93 263 -92 392 1 123 21 194 85 301 38 62 145 194 158 194 5 0 40 -33 78
-74z m-491 -671 c160 -78 276 -280 291 -502 l6 -83 -44 0 -44 0 -32 68 c-35
74 -100 155 -144 177 -43 23 -88 19 -98 -7 -9 -24 1 -80 24 -135 8 -20 15 -40
15 -45 0 -25 -159 37 -226 88 -128 98 -164 312 -70 419 66 76 193 84 322 20z
m1119 19 c98 -46 132 -224 67 -350 -42 -83 -175 -177 -279 -199 -39 -8 -39 -7
-12 69 11 32 19 75 17 95 -3 33 -6 36 -38 39 -68 6 -161 -80 -224 -205 -25
-51 -28 -53 -66 -53 -46 0 -44 -4 -30 110 20 151 90 310 175 395 111 109 278
152 390 99z m-337 -668 c2 -24 -2 -42 -10 -47 -15 -10 -668 -12 -692 -3 -16 6
-23 73 -9 87 4 4 164 6 357 5 l351 -3 3 -39z m-179 -126 c17 -27 63 -82 103
-121 l73 -72 -48 6 c-26 4 -79 20 -118 37 -39 16 -74 30 -78 30 -4 0 -12 -42
-18 -92 -12 -102 -40 -187 -77 -232 l-23 -30 -27 41 c-38 57 -56 123 -63 226
-3 48 -10 87 -15 87 -5 0 -41 -14 -81 -30 -39 -17 -92 -34 -117 -37 l-45 -6
85 89 c47 49 92 104 99 122 l13 32 153 0 153 0 31 -50z"/>
</g>
</svg>
